<mxfile host="app.diagrams.net" modified="2025-08-13T15:37:38.000Z" agent="5.0" etag="drawio" version="22.1.16" type="device">
  <diagram name="Use Case Diagram" id="use-case-diagram">
    <mxGraphModel dx="1422" dy="754" grid="1" gridSize="10" guides="1" tooltips="1" connect="1" arrows="1" fold="1" page="1" pageScale="1" pageWidth="1169" pageHeight="827" math="0" shadow="0">
      <root>
        <mxCell id="0" />
        <mxCell id="1" parent="0" />
        
        <!-- Title -->
        <mxCell id="title" value="Diagramme de Cas d'Utilisation - Plugin Custom Price Widget" style="text;html=1;strokeColor=none;fillColor=none;align=center;verticalAlign=middle;whiteSpace=wrap;rounded=0;fontSize=16;fontStyle=1;" vertex="1" parent="1">
          <mxGeometry x="300" y="20" width="569" height="30" as="geometry" />
        </mxCell>
        
        <!-- Actors -->
        <mxCell id="visiteur" value="Visiteur" style="shape=umlActor;verticalLabelPosition=bottom;verticalAlign=top;html=1;outlineConnect=0;" vertex="1" parent="1">
          <mxGeometry x="50" y="150" width="30" height="60" as="geometry" />
        </mxCell>
        
        <mxCell id="client" value="Client" style="shape=umlActor;verticalLabelPosition=bottom;verticalAlign=top;html=1;outlineConnect=0;" vertex="1" parent="1">
          <mxGeometry x="50" y="280" width="30" height="60" as="geometry" />
        </mxCell>
        
        <mxCell id="commercial" value="Commercial" style="shape=umlActor;verticalLabelPosition=bottom;verticalAlign=top;html=1;outlineConnect=0;" vertex="1" parent="1">
          <mxGeometry x="50" y="410" width="30" height="60" as="geometry" />
        </mxCell>
        
        <mxCell id="admin" value="Administrateur WordPress" style="shape=umlActor;verticalLabelPosition=bottom;verticalAlign=top;html=1;outlineConnect=0;" vertex="1" parent="1">
          <mxGeometry x="50" y="540" width="30" height="60" as="geometry" />
        </mxCell>
        
        <!-- System boundary -->
        <mxCell id="system" value="Plugin Custom Price Widget" style="swimlane;whiteSpace=wrap;html=1;fontSize=14;fontStyle=1;startSize=30;" vertex="1" parent="1">
          <mxGeometry x="200" y="100" width="850" height="550" as="geometry" />
        </mxCell>
        
        <!-- Use Cases -->
        <mxCell id="uc1" value="Afficher formulaire de chiffrage" style="ellipse;whiteSpace=wrap;html=1;" vertex="1" parent="system">
          <mxGeometry x="50" y="50" width="120" height="60" as="geometry" />
        </mxCell>
        
        <mxCell id="uc2" value="Configurer produit (Pergola/Rideau/Brise-Vue/Voile)" style="ellipse;whiteSpace=wrap;html=1;" vertex="1" parent="system">
          <mxGeometry x="200" y="50" width="140" height="60" as="geometry" />
        </mxCell>
        
        <mxCell id="uc3" value="Sélectionner dimensions" style="ellipse;whiteSpace=wrap;html=1;" vertex="1" parent="system">
          <mxGeometry x="370" y="50" width="120" height="60" as="geometry" />
        </mxCell>
        
        <mxCell id="uc4" value="Choisir matières et options" style="ellipse;whiteSpace=wrap;html=1;" vertex="1" parent="system">
          <mxGeometry x="520" y="50" width="120" height="60" as="geometry" />
        </mxCell>
        
        <mxCell id="uc5" value="Saisir informations client" style="ellipse;whiteSpace=wrap;html=1;" vertex="1" parent="system">
          <mxGeometry x="670" y="50" width="120" height="60" as="geometry" />
        </mxCell>
        
        <mxCell id="uc6" value="Calculer prix automatiquement" style="ellipse;whiteSpace=wrap;html=1;" vertex="1" parent="system">
          <mxGeometry x="50" y="150" width="120" height="60" as="geometry" />
        </mxCell>
        
        <mxCell id="uc7" value="Envoyer devis par email" style="ellipse;whiteSpace=wrap;html=1;" vertex="1" parent="system">
          <mxGeometry x="200" y="150" width="120" height="60" as="geometry" />
        </mxCell>
        
        <mxCell id="uc8" value="Ajouter au panier WooCommerce" style="ellipse;whiteSpace=wrap;html=1;" vertex="1" parent="system">
          <mxGeometry x="350" y="150" width="120" height="60" as="geometry" />
        </mxCell>
        
        <mxCell id="uc9" value="Recevoir email client" style="ellipse;whiteSpace=wrap;html=1;" vertex="1" parent="system">
          <mxGeometry x="50" y="250" width="120" height="60" as="geometry" />
        </mxCell>
        
        <mxCell id="uc10" value="Recevoir email commercial" style="ellipse;whiteSpace=wrap;html=1;" vertex="1" parent="system">
          <mxGeometry x="200" y="250" width="120" height="60" as="geometry" />
        </mxCell>
        
        <mxCell id="uc11" value="Accéder au formulaire de test" style="ellipse;whiteSpace=wrap;html=1;" vertex="1" parent="system">
          <mxGeometry x="350" y="250" width="120" height="60" as="geometry" />
        </mxCell>
        
        <mxCell id="uc12" value="Configurer plugin" style="ellipse;whiteSpace=wrap;html=1;" vertex="1" parent="system">
          <mxGeometry x="500" y="350" width="120" height="60" as="geometry" />
        </mxCell>
        
        <mxCell id="uc13" value="Gérer templates email" style="ellipse;whiteSpace=wrap;html=1;" vertex="1" parent="system">
          <mxGeometry x="650" y="350" width="120" height="60" as="geometry" />
        </mxCell>
        
        <!-- Associations Visiteur -->
        <mxCell id="assoc1" value="" style="endArrow=none;html=1;rounded=0;" edge="1" parent="1" source="visiteur" target="uc1">
          <mxGeometry width="50" height="50" relative="1" as="geometry">
            <mxPoint x="100" y="200" as="sourcePoint" />
            <mxPoint x="250" y="180" as="targetPoint" />
          </mxGeometry>
        </mxCell>
        
        <mxCell id="assoc2" value="" style="endArrow=none;html=1;rounded=0;" edge="1" parent="1" source="visiteur" target="uc2">
          <mxGeometry width="50" height="50" relative="1" as="geometry">
            <mxPoint x="100" y="200" as="sourcePoint" />
            <mxPoint x="400" y="180" as="targetPoint" />
          </mxGeometry>
        </mxCell>
        
        <mxCell id="assoc3" value="" style="endArrow=none;html=1;rounded=0;" edge="1" parent="1" source="visiteur" target="uc11">
          <mxGeometry width="50" height="50" relative="1" as="geometry">
            <mxPoint x="100" y="200" as="sourcePoint" />
            <mxPoint x="550" y="380" as="targetPoint" />
          </mxGeometry>
        </mxCell>
        
        <!-- Associations Client -->
        <mxCell id="assoc4" value="" style="endArrow=none;html=1;rounded=0;" edge="1" parent="1" source="client" target="uc9">
          <mxGeometry width="50" height="50" relative="1" as="geometry">
            <mxPoint x="100" y="300" as="sourcePoint" />
            <mxPoint x="250" y="380" as="targetPoint" />
          </mxGeometry>
        </mxCell>
        
        <!-- Associations Commercial -->
        <mxCell id="assoc5" value="" style="endArrow=none;html=1;rounded=0;" edge="1" parent="1" source="commercial" target="uc10">
          <mxGeometry width="50" height="50" relative="1" as="geometry">
            <mxPoint x="100" y="440" as="sourcePoint" />
            <mxPoint x="400" y="380" as="targetPoint" />
          </mxGeometry>
        </mxCell>
        
        <!-- Associations Admin -->
        <mxCell id="assoc6" value="" style="endArrow=none;html=1;rounded=0;" edge="1" parent="1" source="admin" target="uc12">
          <mxGeometry width="50" height="50" relative="1" as="geometry">
            <mxPoint x="100" y="570" as="sourcePoint" />
            <mxPoint x="700" y="480" as="targetPoint" />
          </mxGeometry>
        </mxCell>
        
        <mxCell id="assoc7" value="" style="endArrow=none;html=1;rounded=0;" edge="1" parent="1" source="admin" target="uc13">
          <mxGeometry width="50" height="50" relative="1" as="geometry">
            <mxPoint x="100" y="570" as="sourcePoint" />
            <mxPoint x="850" y="480" as="targetPoint" />
          </mxGeometry>
        </mxCell>
        
        <!-- Include relationships -->
        <mxCell id="include1" value="&amp;lt;&amp;lt;include&amp;gt;&amp;gt;" style="endArrow=open;endSize=12;dashed=1;html=1;rounded=0;" edge="1" parent="1" source="uc1" target="uc2">
          <mxGeometry width="160" relative="1" as="geometry">
            <mxPoint x="370" y="180" as="sourcePoint" />
            <mxPoint x="400" y="180" as="targetPoint" />
          </mxGeometry>
        </mxCell>
        
        <mxCell id="include2" value="&amp;lt;&amp;lt;include&amp;gt;&amp;gt;" style="endArrow=open;endSize=12;dashed=1;html=1;rounded=0;" edge="1" parent="1" source="uc2" target="uc3">
          <mxGeometry width="160" relative="1" as="geometry">
            <mxPoint x="540" y="180" as="sourcePoint" />
            <mxPoint x="570" y="180" as="targetPoint" />
          </mxGeometry>
        </mxCell>
        
        <mxCell id="include3" value="&amp;lt;&amp;lt;include&amp;gt;&amp;gt;" style="endArrow=open;endSize=12;dashed=1;html=1;rounded=0;" edge="1" parent="1" source="uc5" target="uc6">
          <mxGeometry width="160" relative="1" as="geometry">
            <mxPoint x="670" y="180" as="sourcePoint" />
            <mxPoint x="170" y="280" as="targetPoint" />
          </mxGeometry>
        </mxCell>
        
        <mxCell id="extend1" value="&amp;lt;&amp;lt;extend&amp;gt;&amp;gt;" style="endArrow=open;endSize=12;dashed=1;html=1;rounded=0;" edge="1" parent="1" source="uc7" target="uc6">
          <mxGeometry width="160" relative="1" as="geometry">
            <mxPoint x="200" y="280" as="sourcePoint" />
            <mxPoint x="170" y="280" as="targetPoint" />
          </mxGeometry>
        </mxCell>
        
        <mxCell id="extend2" value="&amp;lt;&amp;lt;extend&amp;gt;&amp;gt;" style="endArrow=open;endSize=12;dashed=1;html=1;rounded=0;" edge="1" parent="1" source="uc8" target="uc6">
          <mxGeometry width="160" relative="1" as="geometry">
            <mxPoint x="350" y="280" as="sourcePoint" />
            <mxPoint x="170" y="280" as="targetPoint" />
          </mxGeometry>
        </mxCell>
        
        <mxCell id="include4" value="&amp;lt;&amp;lt;include&amp;gt;&amp;gt;" style="endArrow=open;endSize=12;dashed=1;html=1;rounded=0;" edge="1" parent="1" source="uc7" target="uc9">
          <mxGeometry width="160" relative="1" as="geometry">
            <mxPoint x="260" y="280" as="sourcePoint" />
            <mxPoint x="170" y="380" as="targetPoint" />
          </mxGeometry>
        </mxCell>
        
        <mxCell id="include5" value="&amp;lt;&amp;lt;include&amp;gt;&amp;gt;" style="endArrow=open;endSize=12;dashed=1;html=1;rounded=0;" edge="1" parent="1" source="uc7" target="uc10">
          <mxGeometry width="160" relative="1" as="geometry">
            <mxPoint x="320" y="280" as="sourcePoint" />
            <mxPoint x="320" y="380" as="targetPoint" />
          </mxGeometry>
        </mxCell>
        
      </root>
    </mxGraphModel>
  </diagram>
</mxfile>
